<svg width="300" height="300" viewBox="0 0 300 300" fill="none" xmlns="http://www.w3.org/2000/svg">
<rect width="300" height="300" fill="#1E1E1E"/>
<g clip-path="url(#clip0_0_1)">
<path d="M0 150V300H150H300V150V-4.47035e-06H150H0V150ZM136.2 26.2C138.7 30.2 141.3 35.1 142 37C142.8 38.9 144.2 41.6 145.2 42.9C146.2 44.2 147 46 147 46.8C147 49 142.3 44.5 139.9 40C138.1 36.5 138.1 36.5 138 39.2C138 41.8 137.8 41.9 135.4 40.9C131.4 39.4 129.9 40.4 125.2 47.6C120.8 54.2 117.9 56.1 121.9 49.7C123 47.8 124 45.3 124 44.1C124 42.9 124.7 40.5 125.6 38.9C128.2 33.7 126.6 34.7 121 41.6C116.8 46.8 116 48.4 117.1 49C118.2 49.7 117.4 51 113.5 55C110.8 57.7 108 60 107.3 60C105.5 60 105.7 56.5 107.5 55C108.3 54.3 110 50.6 111.2 46.7C112.8 41.9 114.8 38.2 117.6 35.1C119.8 32.6 123.5 27.9 125.9 24.7C128.2 21.6 130.5 19 130.9 19C131.4 19 133.8 22.3 136.2 26.2ZM169.7 32.7C172.8 36.9 177.6 44.7 180.4 49.9C183.1 55.2 187.3 61.4 189.7 63.8C194.4 68.6 196 73.3 191.5 69C190.1 67.7 188.7 67 188.3 67.3C188 67.7 187.1 67.5 186.3 66.9C185.3 66 185 66.1 185 67.1C185 67.9 184.1 67.6 182.8 66.1C181.2 64.5 180.9 63.6 181.7 63.3C183.2 62.8 182 60.1 178.4 55.7C177.1 54.1 176 51.8 176 50.6C176 49.4 174.9 46.9 173.5 45C171.4 42.2 171 42 171 43.6C171 44.8 171.7 47.9 172.5 50.6C173.3 53.3 174 55.7 174 56C174 56.2 172.2 54.6 170 52.5L166 48.6V52.6C166 55.9 165 58.1 160.9 63.9C155.5 71.6 153.6 72.7 156.8 66.3C161.2 57.6 159.8 58.1 152.6 67.7C148.4 73.4 144.7 78 144.4 78C144.2 78 145.3 75.6 147 72.7C148.6 69.7 150 66.5 150 65.6C150 64.6 151.6 60.8 153.6 57.2L157.2 50.5L153.6 54.5C151.7 56.7 150.1 58.8 150 59.2C150 59.7 149.6 60 149 60C148.5 60 148.7 58.2 149.5 56C150.3 53.8 150.7 52 150.5 52C150.3 52 147.3 55.7 144 60.1C140.1 65.5 138.2 68.9 138.5 70C138.9 71.2 137.7 73 134.5 75.8C132 78 128.6 81.5 127 83.5C125.3 85.6 124 87 124 86.7C124 84.6 129.7 74.9 131.2 74.4C133.3 73.8 136.2 69.2 138.8 62.4C139.8 59.6 143.2 54.2 146.2 50.4C149.3 46.6 154.1 39.3 157 34.2C159.9 29.2 162.6 25 163.1 25C163.6 25 166.5 28.5 169.7 32.7ZM136 48C139.6 55.1 139.8 57.6 136.5 53.6L134.2 50.7L132.6 54.4C130.8 58.7 127 64.3 126.3 63.7C126.1 63.4 126.6 61.8 127.5 60.1C129.4 56.3 128.7 56.1 125.5 59.7C122.9 62.8 121.2 62.3 123 59C125.2 54.8 123.3 56 118.9 61.5C116.5 64.5 114.2 67 113.7 67C112.6 67 113.2 66 121.1 55.4C126.9 47.5 131.7 42 132.7 42C132.8 42 134.3 44.7 136 48ZM107.1 64.2C109.6 69.2 111 73.2 110.7 74.7C110.5 76.1 110.8 77 111.5 77C113.3 77 115.6 80.1 117 84.4C117.7 86.6 119.9 90.2 121.9 92.4C130.6 102.1 128.2 100.9 116.3 89.6L111.1 84.6L105.1 90.3C101.8 93.4 98.9 96 98.6 96C98.1 96 100.2 92.4 105.8 84C107.6 81.2 108.7 79 108.2 79C107.8 79 105.2 81.3 102.5 84.1C99.7 86.9 95.3 91 92.5 93.3L87.5 97.5L93.7 90.7C100 84 103.9 78 102.1 78C101.6 78 99.5 79.9 97.6 82.2C93.6 86.8 93.4 86.8 95.4 81.9C96.1 80 97 76.5 97.4 74L98 69.5L95.4 72.5C89.5 79.4 87 83.4 88.1 84C88.8 84.5 87.4 86.7 84.4 90.1C79.6 95.6 74.9 99.4 78 95.4C78.8 94.4 80.2 92.6 81.1 91.5C82 90.4 83.1 87.9 83.5 86L84.2 82.5L80.9 85.5C79 87.1 77.4 88.8 77.2 89.2C77 89.7 75.6 91.5 74 93.2C72.4 95 70.2 97.6 69 99C67.7 100.6 68.3 98.8 70.7 94C72.8 89.8 76.7 84.3 79.5 81.4C85.2 75.6 94.3 65.2 98.4 59.7C100 57.7 101.6 56 102.1 56C102.6 56 104.8 59.7 107.1 64.2ZM170.7 60.5C171.9 61.3 173.6 64.3 174.5 67C175.8 70.9 177.1 72.7 180.6 75.1C183 76.7 185 78.5 185 79.1C185 79.6 187.1 82.4 189.8 85.2C197.1 93.1 189.7 88.1 175.7 75.6L167.9 68.7L163.1 74.1C157.3 80.6 146.3 90.2 147.8 87.4C148.4 86.4 150.7 83.7 152.9 81.5C155.2 79.4 157 76.9 157 76C157 74.6 163.1 64 165.9 60.7C167.6 58.6 168 58.6 170.7 60.5ZM218.9 73.5C222 77.3 225.6 82 226.8 83.7C228.1 85.5 230.2 87.3 231.4 87.6C232.7 87.9 235.3 89.8 237.1 91.8L240.5 95.4L237.5 93.5C235.9 92.5 233.6 91.6 232.3 91.4C229.5 91.1 222 85 222 82.9C222 82.1 220.4 79.9 218.5 78C214.5 74.1 214.1 74.4 217.1 79.5C221.1 86.2 218.3 84.1 211.9 75.5L205.5 67L197.7 75.1C189.7 83.5 186.8 84.9 191.2 78.3C192.6 76.2 194.5 72.8 195.5 70.7C196.5 68.6 198.4 66.3 199.9 65.6C201.3 64.8 203.4 63.2 204.4 62.1L206.4 60L209.8 63.2C211.7 65 215.8 69.6 218.9 73.5ZM173.4 77.7C174.8 79.8 176.9 82.8 178.1 84.4C180.1 87 180.2 87.2 178.4 86.2C177.4 85.7 175.6 84.2 174.5 83C170.5 78.5 169.3 78.6 163.9 83.2C161.1 85.6 156.1 90.1 152.9 93.2C149.7 96.4 146.5 99 145.8 99C145.1 99 145.7 98.2 147 97.3C148.4 96.4 149.9 94.9 150.4 94.1C151.2 92.7 170.1 74 170.7 74C170.9 74 172.1 75.7 173.4 77.7ZM198.3 81.4C197.3 82.7 196.3 83.6 196.1 83.4C195.7 83 199 79 199.7 79C199.9 79 199.3 80.1 198.3 81.4ZM206.5 84C208.4 86.1 207.2 86.8 205.2 84.8C204.3 83.9 203.6 84.1 202 85.5C199.7 87.6 199.4 86.9 201.2 84C202.8 81.5 204.2 81.5 206.5 84ZM116.4 93.2C119.5 97.5 118.6 98.3 115 94.5C113.7 93.1 112.3 92 111.9 92C111.5 92 108.4 94.3 105.1 97.1C101.7 99.9 99 101.8 99 101.3C99 100 112.4 88.1 113.1 88.8C113.4 89.2 114.8 91.2 116.4 93.2ZM86 98.4C86 98.6 85.2 99.4 84.3 100.1C82.7 101.4 82.6 101.3 83.9 99.7C85.2 98.1 86 97.6 86 98.4ZM167.1 129.7C172.8 134.5 181.1 141.4 185.5 145.2L193.5 152L194 143.8L194.5 135.5H203.5H212.5L212.8 151.8L213.1 168.1L215.8 170.5C217.3 171.9 223.5 177.1 229.7 182.2C241.4 191.9 242.9 193.7 240.5 194.6C239 195.2 236.7 193.3 183.5 148.6C168.7 136.2 156.4 126 156 126C155.7 126 147.8 132.4 138.4 140.3C129.1 148.1 111.7 162.6 99.9 172.4C88.2 182.2 77.1 191.6 75.4 193.2C72.8 195.6 72.1 195.9 71.1 194.7C70.2 193.6 70.4 192.8 71.7 191.2C72.7 190.1 87.1 177.9 103.8 164C120.4 150.2 134 138.7 134 138.6C134 138.5 130.9 135.9 127.1 132.7L120.2 127.1L106.4 138.9C54.8 182.8 41.4 194 40.6 193.7C38.5 193 39.1 191.1 42.2 188.2C45 185.6 66 167.7 110.7 129.6C119 122.6 120.2 121.9 121.7 123.1C122.7 123.9 126.6 127.1 130.3 130.3L137.1 136.1L142.3 131.8C145.2 129.5 149.2 126.1 151.3 124.3C153.3 122.5 155.4 121 155.9 121C156.3 121 161.4 124.9 167.1 129.7ZM124.1 186C125.4 186.7 126 188.1 125.9 190.3L125.8 193.5L124.5 190.4C122.8 186.5 120.4 185.5 117.4 187.5C115.1 189 114.7 189.9 113.6 196.7C112.7 201.9 114.5 210.2 116.9 212.1C120.3 214.9 122 213.5 122 208C122 205.3 121.6 202.8 121 202.5C118.9 201.2 120.2 200 123.8 200H127.5L127 206.2C126.6 211.6 126.2 212.6 124 213.7C118.5 216.5 112.4 214.2 109.6 208.3C107.6 204.1 107.5 195.8 109.5 192C112.6 186 119.1 183.4 124.1 186ZM162.1 186C163.4 186.7 164 188.1 164 190.3L163.9 193.5L162.6 190.4C160.9 186.5 158.4 185.5 155.4 187.5C152.6 189.3 151.6 193.7 152.2 203.1C152.5 209.1 152.9 210.5 154.9 212.2C156.2 213.2 157.8 213.9 158.4 213.7C159.8 213.2 160.5 202 159 202C158.5 202 158 201.5 158 201C158 200.4 159.7 200 161.8 200H165.7L165.2 205.7C164.7 212.5 163.6 214 158.3 214.7C150.8 215.7 145.3 208 146.2 197.8C147.2 188.4 155.2 182.4 162.1 186ZM195.6 194.7C200 202.7 200.5 203.2 200.8 200.6C201 199 201 195.1 200.8 191.8C200.6 187.4 200.8 186 201.9 186C202.7 186 203 186.6 202.6 187.6C202.3 188.5 202 194.8 202 201.7C202 211.2 201.7 214.1 200.8 213.8C200.1 213.5 197.3 209.3 194.5 204.3C191.8 199.3 189.1 194.8 188.7 194.3C188.2 193.9 188 198.1 188.2 203.8C188.5 213.4 188.4 214 186.5 214C185 214 184.9 213.7 185.8 213.1C186.8 212.5 187 209.5 186.8 200.9C186.6 194.6 186.1 188.7 185.6 187.7C184.9 186.3 185.3 186 187.7 186C190.4 186 191.1 186.9 195.6 194.7ZM136.1 209.7C137.1 212.4 134.9 215.6 132.6 214.7C130.7 213.9 130.4 208.4 132.3 207.7C134.2 206.9 135.2 207.4 136.1 209.7ZM174 209C175.4 211.6 173.6 215.3 171.2 214.8C169.1 214.4 168.4 210.4 170 208.4C171.7 206.5 172.7 206.6 174 209ZM212.2 209.5C213.1 211.6 213.1 212.4 211.7 213.7C210.4 215 209.8 215.1 208.6 214C206.7 212.5 206.5 209.9 208.2 208.2C210 206.4 210.9 206.7 212.2 209.5ZM221 242C221 242.7 193.3 243 140 243C86.7 243 59 242.7 59 242C59 241.3 86.7 241 140 241C193.3 241 221 241.3 221 242ZM39 261C39 261.5 38.3 262 37.5 262C36.7 262 36 262.7 36 263.6C36 264.9 36.3 265 37.4 264.1C38.4 263.3 39 263.2 39.5 264C40.4 265.5 39.2 267 37 267C34.9 267 33.7 264.5 34.5 261.9C35.2 259.9 39 259.2 39 261ZM45.8 263.2C45.6 264.9 45 266.5 44.4 266.7C43.8 266.9 43.6 265.7 43.8 263.5C44.3 259.1 46.2 258.8 45.8 263.2ZM54 261C54 261.5 53.3 262 52.5 262C51.7 262 51 262.7 51 263.5C51 264.3 51.5 265 52 265C52.6 265 53 264.5 53 263.9C53 263.4 53.5 263.2 54 263.5C55.7 264.6 55.1 267 53 267C50.5 267 48.9 264.1 50.1 261.8C51.1 259.9 54 259.3 54 261ZM61.1 261.7C61.2 263.4 61.3 263.4 61.7 261.7C62.4 259.1 64 259.6 64 262.5C64 263.9 64 265.3 64 265.7C64 266.1 62.9 266.5 61.5 266.6C59.3 266.7 59 266.3 59 263.3C59 260 60.9 258.5 61.1 261.7ZM78 261C78 261.5 77.3 262 76.5 262C75.7 262 75 262.7 75 263.5C75 264.3 75.5 265 76 265C76.6 265 77 264.5 77 263.9C77 263.4 77.5 263.2 78 263.5C80 264.7 79.1 267.1 76.8 266.8C74.5 266.5 73.4 264 74.4 261.4C75 259.8 78 259.5 78 261ZM86.7 263.8C86.8 266.4 86.6 266.9 85.5 266C84.5 265.2 84.1 265.3 83.7 266.2C83.4 266.9 83.1 265.8 83.1 263.7C83 260.6 83.3 259.9 84.8 260.2C85.9 260.4 86.6 261.6 86.7 263.8ZM93 265C93.5 265 94.1 263.8 94.3 262.2C94.6 260.1 94.7 260.3 94.9 263.3C95 266.5 94.7 267.1 93.3 266.8C92 266.6 91.5 265.5 91.4 263C91.3 260.4 91.3 260.2 91.7 262.2C91.9 263.8 92.5 265 93 265ZM103.3 261.4C103.8 262.7 101 267 99.6 267C99.3 267 99 265.4 99 263.5C99 260.7 99.4 260 100.9 260C101.9 260 103 260.6 103.3 261.4ZM112.5 261.9C113.3 264.5 112.1 267 110 267C109 267 107.9 266.3 107.6 265.4C106.6 262.9 107.9 260 110 260C111 260 112.1 260.8 112.5 261.9ZM126 261C126 261.5 125.3 262 124.5 262C123.7 262 123 262.7 123 263.5C123 264.3 123.5 265 124 265C124.6 265 125 264.5 125 263.9C125 263.4 125.5 263.2 126 263.5C128 264.7 127.1 267.1 124.8 266.8C122.5 266.5 121.4 264 122.4 261.4C123 259.8 126 259.5 126 261ZM133 265C133.5 265 134.1 263.8 134.3 262.2C134.6 260.1 134.7 260.3 134.9 263.3C135 266.5 134.7 267.1 133.3 266.8C132 266.6 131.5 265.5 131.4 263C131.3 260.4 131.3 260.2 131.7 262.2C131.9 263.8 132.5 265 133 265ZM142.6 261.7C142.6 262.7 142.1 263.8 141.5 264.2C140.9 264.7 141.1 265.4 142 266C143.2 266.8 143.1 267 141.3 267C139.3 267 139 266.5 139 263.5C139 260.7 139.4 260 140.9 260C142.1 260 142.7 260.7 142.6 261.7ZM151 263.6C151 266.6 150.8 267 149.6 266.1C148.5 265.2 148.1 265.2 147.7 266.2C147.4 266.9 147.1 265.8 147.1 263.7C147 260.6 147.3 260 149 260C150.6 260 151 260.7 151 263.6ZM159 263.7C159 266.6 158.7 267.1 158 266C157.1 264.7 156.9 264.7 156 266C155.3 267.1 155 266.6 155 263.7C155 260.7 155.4 260 157 260C158.6 260 159 260.7 159 263.7ZM166.1 260.9C165.1 261.5 165.1 261.9 166 262.5C166.9 263.1 166.9 263.5 165.9 264.1C164.7 264.9 164.8 265.2 166 266C167.2 266.8 167.1 267 165.3 267C163.3 267 163 266.5 163 263.5C163 260.5 163.3 260 165.3 260C166.9 260 167.1 260.3 166.1 260.9ZM175 263.3C175 265.9 174.6 266.6 173 266.6C171.4 266.6 171 265.9 171 263.3C171 260.7 171.4 260 173 260C174.6 260 175 260.7 175 263.3ZM183.5 263.5C183.5 265.8 183.1 266.5 181.5 266.5C179.4 266.5 178.4 264 179.4 261.4C180.5 258.6 183.5 260.2 183.5 263.5ZM197.5 263.5C197.5 265.8 197 266.6 195.3 266.8C193.4 267.1 193 266.7 193 264.2C193 260.9 193.8 259.8 196 260.2C196.9 260.4 197.5 261.6 197.5 263.5ZM205.3 260.6C204.6 260.9 204.4 261.8 204.7 262.6C205 263.4 204.6 264 203.9 264C203 264.1 203.2 264.6 204.4 265.5C206.3 267 206.3 267 204.2 267C202.4 267 202 266.4 202 263.5C202 260.5 202.3 260 204.3 260.1C205.5 260.1 206 260.4 205.3 260.6ZM212.3 265.9C213.2 266.9 213 267.2 211.5 266.9C209.3 266.4 208.4 263.8 209.6 261.2C210.2 259.8 210.4 259.9 210.8 262C211 263.4 211.7 265.1 212.3 265.9ZM224.1 261.2C224.1 262.2 224.3 262.2 224.7 261.2C225.7 258.8 227 260.1 227 263.5C227 266.9 225.7 268.2 224.7 265.7C224.3 264.8 223.9 264.9 223.1 266C222.3 267.2 222 266.7 222 263.7C222 261.7 222.5 260 223 260C223.6 260 224 260.6 224.1 261.2ZM235.6 262.4C236.3 265.3 235.5 267 233.5 267C231.4 267 230 263.9 231.1 261.8C232.5 259.2 234.9 259.6 235.6 262.4ZM243.6 263.8C243.7 265.5 243.4 267 242.9 267C242.4 267 242 266.4 242 265.7C242 264.9 241.6 265 241 266C240.3 267.1 240 266.5 240 263.7C240 260.6 240.3 259.9 241.7 260.2C242.9 260.4 243.5 261.6 243.6 263.8ZM251.2 261.2C250.5 261.9 250 263.5 250 264.9C250 268 249.5 267.4 248.7 263.2C248.1 260.4 248.3 260 250.2 260C251.9 260 252.1 260.3 251.2 261.2ZM258.7 261.7C258.7 262.7 258.2 263.8 257.6 264.2C256.8 264.8 257 265.3 258 266C259.3 266.8 259.2 267 257.8 267C256.4 267 256 266.2 256 263.5C256 261.2 256.5 260 257.3 260C258.1 260 258.7 260.8 258.7 261.7Z" fill="black"/>
<path d="M197.7 139.6C197.3 140 197 143.6 197 147.6V154.8L202.4 159.4C205.3 161.9 208.1 164 208.6 164C209.1 164 209.5 158.5 209.5 151.7V139.5L204 139.2C200.9 139 198.1 139.2 197.7 139.6Z" fill="black"/>
<path d="M109 263.5C109 264.3 109.5 265 110 265C110.6 265 111 264.3 111 263.5C111 262.7 110.6 262 110 262C109.5 262 109 262.7 109 263.5Z" fill="black"/>
<path d="M180.7 262.6C179.9 263.4 180.8 265 182.1 265C182.6 265 183 264.3 183 263.5C183 262 181.8 261.5 180.7 262.6Z" fill="black"/>
<path d="M195 263.6C195 264.4 195.5 264.8 196 264.5C196.6 264.1 196.8 263.4 196.5 262.9C195.6 261.5 195 261.8 195 263.6Z" fill="black"/>
<path d="M232 263.5C232 264.3 232.5 265 233 265C233.6 265 234 264.3 234 263.5C234 262.7 233.6 262 233 262C232.5 262 232 262.7 232 263.5Z" fill="black"/>
</g>
<defs>
<clipPath id="clip0_0_1">
<rect width="300" height="300" fill="white"/>
</clipPath>
</defs>
</svg>
