<?xml version="1.0" standalone="no"?>
<!DOCTYPE svg PUBLIC "-//W3C//DTD SVG 20010904//EN"
 "http://www.w3.org/TR/2001/REC-SVG-20010904/DTD/svg10.dtd">
<svg version="1.0" xmlns="http://www.w3.org/2000/svg"
 width="300.000000pt" height="300.000000pt" viewBox="0 0 300.000000 300.000000"
 preserveAspectRatio="xMidYMid meet">

<g transform="translate(0.000000,300.000000) scale(0.100000,-0.100000)"
fill="#000000" stroke="none">
<path d="M0 1500 l0 -1500 1500 0 1500 0 0 1500 0 1500 -1500 0 -1500 0 0
-1500z m1351 1258 c40 -66 119 -218 119 -232 0 -16 -51 37 -71 74 -18 35 -18
35 -19 8 0 -26 -2 -27 -26 -17 -40 15 -55 5 -102 -67 -44 -66 -73 -85 -33 -21
11 19 21 44 21 56 0 12 7 36 16 52 26 52 10 42 -46 -27 -42 -52 -50 -68 -39
-74 11 -7 3 -20 -36 -60 -27 -27 -55 -50 -62 -50 -18 0 -16 35 2 50 8 7 25 44
37 83 16 48 36 85 64 116 22 25 59 72 83 104 23 31 46 57 50 57 5 0 24 -24 42
-52z m350 -90 c33 -46 81 -123 106 -172 26 -51 64 -108 89 -134 48 -47 65 -95
19 -52 -14 13 -28 20 -32 17 -3 -4 -12 -2 -20 4 -10 9 -13 8 -13 -1 0 -9 -6
-7 -20 5 -13 11 -18 25 -14 39 3 15 -5 34 -25 60 -17 21 -31 49 -31 60 0 12
-11 37 -25 56 -21 28 -25 30 -25 14 0 -12 7 -43 15 -70 8 -27 15 -51 15 -54 0
-2 -18 14 -40 35 l-40 39 0 -40 c0 -33 -10 -55 -51 -113 -54 -77 -73 -88 -41
-24 44 87 30 82 -42 -14 -42 -57 -78 -103 -81 -103 -3 0 8 24 25 53 16 30 30
62 30 71 0 10 16 48 36 84 l36 67 -36 -40 c-19 -22 -35 -43 -36 -47 0 -5 -4
-8 -10 -8 -5 0 -3 18 5 40 8 22 12 40 10 40 -2 0 -32 -37 -65 -81 -39 -54 -58
-88 -55 -99 4 -12 -8 -30 -40 -58 -25 -22 -59 -57 -75 -77 -17 -21 -30 -35
-30 -32 0 21 57 118 72 123 21 6 50 52 76 120 10 28 44 82 74 120 31 38 79
111 108 162 29 50 56 92 61 92 5 0 37 -37 70 -82z m-341 -148 c36 -71 38 -96
5 -56 l-23 29 -16 -37 c-18 -43 -56 -99 -63 -93 -2 3 3 19 12 36 19 38 12 40
-20 4 -26 -31 -43 -26 -25 7 22 42 3 30 -41 -25 -24 -30 -47 -55 -52 -55 -11
0 -5 10 75 117 65 89 103 133 113 133 3 0 18 -27 35 -60z m-289 -162 c25 -50
39 -90 36 -105 -2 -14 1 -23 8 -23 18 0 41 -31 55 -74 7 -22 29 -58 49 -80 87
-97 63 -85 -56 28 l-52 50 -60 -57 c-33 -31 -62 -57 -65 -57 -5 0 16 36 72
120 18 28 29 50 24 50 -4 0 -28 -21 -52 -46 -25 -25 -72 -69 -105 -97 l-60
-52 67 72 c66 72 108 133 89 133 -5 0 -26 -19 -45 -42 -40 -46 -42 -46 -22 3
7 19 16 54 20 79 l6 45 -26 -30 c-59 -69 -84 -109 -73 -115 7 -5 -7 -27 -37
-61 -48 -55 -95 -93 -64 -53 8 10 22 28 31 39 9 11 20 36 24 55 l7 35 -33 -30
c-19 -16 -35 -33 -37 -37 -2 -5 -16 -23 -32 -40 -16 -18 -38 -44 -50 -58 -13
-16 -7 2 17 50 21 42 60 97 88 126 57 58 148 162 189 217 16 20 32 37 37 37 5
0 27 -37 50 -82z m636 37 c12 -8 29 -38 38 -65 13 -39 26 -57 61 -81 24 -16
44 -34 44 -40 0 -5 21 -33 48 -61 72 -79 -1 -29 -141 95 l-77 69 -45 -50 c-57
-64 -172 -163 -157 -137 6 11 29 38 51 60 23 21 41 46 41 55 0 14 61 120 89
153 17 21 21 21 48 2z m482 -130 c31 -38 67 -85 79 -102 13 -18 34 -36 46 -39
13 -3 39 -22 57 -42 l34 -36 -30 19 c-16 10 -39 19 -52 21 -28 3 -103 64 -103
85 0 8 -16 30 -35 49 -40 39 -44 36 -14 -15 40 -67 12 -46 -52 40 l-64 85 -78
-81 c-80 -84 -109 -98 -65 -32 14 21 33 55 43 76 10 21 29 44 44 51 14 8 35
24 45 35 l20 21 34 -32 c19 -18 60 -64 91 -103z m-455 -42 c14 -21 35 -51 47
-67 20 -26 21 -28 3 -18 -10 5 -28 20 -39 32 -40 45 -52 44 -106 -2 -28 -24
-78 -69 -110 -100 -32 -32 -64 -58 -71 -58 -7 0 -1 8 12 17 14 9 29 24 34 32
8 14 197 201 203 201 2 0 14 -17 27 -37z m255 -28 c-18 -25 -34 -45 -36 -45
-6 0 6 19 35 58 37 49 38 38 1 -13z m76 -35 c19 -21 7 -28 -13 -8 -9 9 -16 7
-32 -7 -23 -21 -26 -14 -8 15 16 25 30 25 53 0z m-901 -93 c36 -47 22 -52 -18
-8 -11 12 -23 21 -27 21 -4 0 -35 -23 -68 -51 -34 -28 -61 -47 -61 -42 0 7
133 133 136 129 1 0 18 -23 38 -49z m-304 -51 c0 -2 -8 -10 -17 -17 -16 -13
-17 -12 -4 4 13 16 21 21 21 13z m811 -313 c57 -48 140 -117 184 -155 l80 -68
5 82 5 83 90 0 90 0 3 -165 3 -165 139 -115 c76 -63 141 -121 144 -128 3 -7
-1 -15 -9 -18 -15 -6 -38 13 -570 460 -148 124 -271 226 -275 226 -3 0 -82
-64 -176 -143 -93 -78 -267 -223 -385 -321 -117 -98 -228 -192 -245 -208 -26
-24 -33 -27 -43 -15 -9 11 -7 19 6 35 10 11 154 133 321 272 166 138 302 253
302 254 0 1 -31 28 -69 59 l-69 56 -149 -127 c-697 -593 -641 -548 -655 -534
-15 15 5 39 117 132 56 47 231 195 389 330 158 135 290 246 294 248 4 1 45
-29 91 -68 l83 -70 51 42 c29 23 69 57 90 75 20 18 41 33 46 33 4 0 55 -39
112 -87z m-430 -563 c13 -7 19 -21 18 -43 l-1 -32 -13 31 c-17 39 -41 49 -71
29 -23 -15 -27 -24 -38 -92 -9 -52 9 -135 33 -154 34 -28 51 -14 51 41 0 27
-4 52 -10 55 -21 13 -8 25 28 25 l37 0 -5 -62 c-4 -54 -8 -64 -30 -75 -55 -28
-116 -5 -144 54 -20 42 -21 125 -1 163 31 60 96 86 146 60z m380 0 c13 -7 19
-21 19 -43 l-1 -32 -13 31 c-17 39 -42 49 -72 29 -28 -18 -38 -62 -32 -156 3
-60 7 -74 27 -91 13 -10 29 -17 35 -15 14 5 21 117 6 117 -5 0 -10 5 -10 10 0
6 17 10 38 10 l39 0 -5 -57 c-5 -68 -16 -83 -69 -90 -75 -10 -130 67 -121 169
10 94 90 154 159 118z m335 -87 c44 -80 49 -85 52 -59 2 16 2 55 0 88 -2 44 0
58 11 58 8 0 11 -6 7 -16 -3 -9 -6 -72 -6 -141 0 -95 -3 -124 -12 -121 -7 3
-35 45 -63 95 -27 50 -54 95 -58 100 -5 4 -7 -38 -5 -95 3 -96 2 -102 -17
-102 -15 0 -16 3 -7 9 10 6 12 36 10 122 -2 63 -7 122 -12 132 -7 14 -3 17 21
17 27 0 34 -9 79 -87z m-595 -150 c10 -27 -12 -59 -35 -50 -19 8 -22 63 -3 70
19 8 29 3 38 -20z m379 7 c14 -26 -4 -63 -28 -58 -21 4 -28 44 -12 64 17 19
27 18 40 -6z m382 -5 c9 -21 9 -29 -5 -42 -13 -13 -19 -14 -31 -3 -19 15 -21
41 -4 58 18 18 27 15 40 -13z m88 -325 c0 -7 -277 -10 -810 -10 -533 0 -810 3
-810 10 0 7 277 10 810 10 533 0 810 -3 810 -10z m-1817 -207 c6 -34 1 -43
-23 -43 -21 0 -33 25 -25 51 10 30 42 24 48 -8z m65 -5 c-2 -17 -8 -33 -14
-35 -6 -2 -8 10 -6 32 5 44 24 47 20 3z m82 22 c0 -5 -7 -10 -15 -10 -8 0 -15
-7 -15 -15 0 -8 5 -15 10 -15 6 0 10 5 10 11 0 5 5 7 10 4 17 -11 11 -35 -10
-35 -25 0 -41 29 -29 52 10 19 39 25 39 8z m71 -7 c1 -17 2 -17 6 0 7 26 23
21 23 -8 0 -14 0 -28 0 -32 0 -4 -11 -8 -25 -9 -22 -1 -25 3 -25 33 0 33 19
48 21 16z m169 7 c0 -5 -7 -10 -15 -10 -8 0 -15 -7 -15 -15 0 -8 5 -15 10 -15
6 0 10 5 10 11 0 5 5 7 10 4 20 -12 11 -36 -12 -33 -23 3 -34 28 -24 54 6 16
36 19 36 4z m87 -28 c1 -26 -1 -31 -12 -22 -10 8 -14 7 -18 -2 -3 -7 -6 4 -6
25 -1 31 2 38 17 35 11 -2 18 -14 19 -36z m63 -12 c5 0 11 12 13 28 3 21 4 19
6 -11 1 -32 -2 -38 -16 -35 -13 2 -18 13 -19 38 -1 26 -1 28 3 8 2 -16 8 -28
13 -28z m103 36 c5 -13 -23 -56 -37 -56 -3 0 -6 16 -6 35 0 28 4 35 19 35 10
0 21 -6 24 -14z m92 -5 c8 -26 -4 -51 -25 -51 -10 0 -21 7 -24 16 -10 25 3 54
24 54 10 0 21 -8 25 -19z m135 9 c0 -5 -7 -10 -15 -10 -8 0 -15 -7 -15 -15 0
-8 5 -15 10 -15 6 0 10 5 10 11 0 5 5 7 10 4 20 -12 11 -36 -12 -33 -23 3 -34
28 -24 54 6 16 36 19 36 4z m70 -40 c5 0 11 12 13 28 3 21 4 19 6 -11 1 -32
-2 -38 -16 -35 -13 2 -18 13 -19 38 -1 26 -1 28 3 8 2 -16 8 -28 13 -28z m96
33 c0 -10 -5 -21 -11 -25 -6 -5 -4 -12 5 -18 12 -8 11 -10 -7 -10 -20 0 -23 5
-23 35 0 28 4 35 19 35 12 0 18 -7 17 -17z m84 -19 c0 -30 -2 -34 -14 -25 -11
9 -15 9 -19 -1 -3 -7 -6 4 -6 25 -1 31 2 37 19 37 16 0 20 -7 20 -36z m80 -1
c0 -29 -3 -34 -10 -23 -9 13 -11 13 -20 0 -7 -11 -10 -6 -10 23 0 30 4 37 20
37 16 0 20 -7 20 -37z m71 28 c-10 -6 -10 -10 -1 -16 9 -6 9 -10 -1 -16 -12
-8 -11 -11 1 -19 12 -8 11 -10 -7 -10 -20 0 -23 5 -23 35 0 30 3 35 23 35 16
0 18 -3 8 -9z m89 -24 c0 -26 -4 -33 -20 -33 -16 0 -20 7 -20 33 0 26 4 33 20
33 16 0 20 -7 20 -33z m85 -2 c0 -23 -4 -30 -20 -30 -21 0 -31 25 -21 51 11
28 41 12 41 -21z m140 0 c0 -23 -5 -31 -22 -33 -19 -3 -23 1 -23 26 0 33 8 44
30 40 9 -2 15 -14 15 -33z m78 29 c-7 -3 -9 -12 -6 -20 3 -8 -1 -14 -8 -14 -9
-1 -7 -6 5 -15 19 -15 19 -15 -2 -15 -18 0 -22 6 -22 35 0 30 3 35 23 34 12 0
17 -3 10 -5z m70 -53 c9 -10 7 -13 -8 -10 -22 5 -31 31 -19 57 6 14 8 13 12
-8 2 -14 9 -31 15 -39z m118 47 c0 -10 2 -10 6 0 10 24 23 11 23 -23 0 -34
-13 -47 -23 -22 -4 9 -8 8 -16 -3 -8 -12 -11 -7 -11 23 0 20 5 37 10 37 6 0
10 -6 11 -12z m117 -21 c4 -34 -25 -49 -44 -22 -10 13 -10 23 -3 37 15 27 43
18 47 -15z m78 -5 c1 -17 -2 -32 -7 -32 -5 0 -9 6 -9 13 0 8 -4 7 -10 -3 -7
-11 -10 -5 -10 23 0 31 3 38 17 35 12 -2 18 -14 19 -36z m76 26 c-7 -7 -12
-23 -12 -37 0 -31 -5 -25 -13 17 -6 28 -4 32 15 32 17 0 19 -3 10 -12z m75 -8
c1 -11 -3 -20 -9 -20 -6 0 -6 -6 2 -15 10 -12 10 -15 -4 -15 -12 0 -16 9 -16
35 0 37 25 51 27 15z"/>
<path d="M1977 1604 c-4 -4 -7 -40 -7 -80 l0 -72 54 -46 c29 -25 57 -46 62
-46 5 0 9 55 9 123 l0 122 -55 3 c-31 2 -59 0 -63 -4z"/>
<path d="M360 364 c0 -8 5 -12 10 -9 6 3 10 10 10 16 0 5 -4 9 -10 9 -5 0 -10
-7 -10 -16z"/>
<path d="M1090 365 c0 -8 5 -15 10 -15 6 0 10 7 10 15 0 8 -4 15 -10 15 -5 0
-10 -7 -10 -15z"/>
<path d="M1807 374 c-8 -8 1 -24 14 -24 5 0 9 7 9 15 0 15 -12 20 -23 9z"/>
<path d="M1950 364 c0 -8 5 -12 10 -9 6 4 8 11 5 16 -9 14 -15 11 -15 -7z"/>
<path d="M2320 365 c0 -8 5 -15 10 -15 6 0 10 7 10 15 0 8 -4 15 -10 15 -5 0
-10 -7 -10 -15z"/>
</g>
</svg>
